<?xml version="1.0" encoding="UTF-8" standalone="no"?>
<!DOCTYPE svg PUBLIC "-//W3C//DTD SVG 1.1//EN" "http://www.w3.org/Graphics/SVG/1.1/DTD/svg11.dtd">
<!-- Created with Vectornator (http://vectornator.io/) -->
<svg height="100%" stroke-miterlimit="10" style="fill-rule:nonzero;clip-rule:evenodd;stroke-linecap:round;stroke-linejoin:round;" version="1.1" viewBox="0 0 3300 2550" width="100%" xml:space="preserve" xmlns="http://www.w3.org/2000/svg" xmlns:vectornator="http://vectornator.io" xmlns:xlink="http://www.w3.org/1999/xlink">
<defs/>
<g id="Untitled" vectornator:layerName="Untitled">
<g opacity="1">
<path d="M2986.5 933C2973.9 937.1 2956 952.8 2940.9 973.2C2923.2 997 2894.5 1050.9 2874.1 1098.6C2848.1 1159.5 2831.9 1203.6 2810.4 1272C2796.2 1316.9 2787.8 1348.5 2779.9 1386C2774.3 1412.9 2766.1 1471.8 2764 1501.8L2763.1 1514.1L2751.1 1526.8C2744.6 1533.8 2738 1541 2736.5 1542.7C2733 1547 2714.9 1562.6 2704.6 1570.3C2678.4 1589.8 2652.1 1590.5 2628.8 1572.3C2619.8 1565.2 2606.1 1548 2607.2 1545.1C2607.3 1544.6 2612.5 1540.4 2618.5 1535.7C2641.1 1518.1 2664.4 1491.9 2685.5 1460.1C2709.9 1423.3 2729 1379.5 2738.4 1338.5C2744.9 1310.2 2744.9 1281.2 2738.4 1271.3C2734.7 1265.5 2721.5 1262.4 2705.5 1263.3C2692.8 1264.1 2685.4 1266.1 2676.2 1271C2634.3 1293.6 2585.3 1363 2556.8 1440C2540.1 1484.9 2534.9 1516.7 2540.1 1541.3C2541.4 1547.1 2541 1547.5 2534 1548.5C2527.7 1549.4 2516.4 1546.6 2509.8 1542.6C2506.9 1540.9 2501.4 1537 2497.7 1534C2489.9 1527.8 2490.2 1529.2 2494.4 1514C2498.8 1497.8 2500.9 1482.6 2502.1 1458.8C2503.3 1434 2502.4 1414.8 2499.5 1403C2498.6 1399.4 2495.9 1392.4 2493.5 1387.4C2487.9 1375.8 2480.7 1368.7 2469.6 1364.1C2465.5 1362.4 2461.7 1361 2461.1 1361C2459.3 1361 2459.7 1359.4 2466.4 1341.6C2480.8 1303.1 2493.5 1259.5 2498 1233.4C2499.2 1226.9 2500.2 1216.5 2500.3 1210.5C2500.5 1200.2 2500.3 1199.1 2497.6 1193.2C2493.1 1183.6 2484.3 1177.1 2475.5 1177C2457.7 1177 2440.8 1190 2422 1218.3C2408.4 1238.7 2403.8 1249.1 2377.6 1319.2C2364.1 1355.4 2353 1385.5 2353 1386.2C2353 1388.4 2356.1 1392.1 2358.8 1393.1C2360.5 1393.8 2364.4 1393.6 2371.5 1392.5C2377 1391.6 2384.3 1391 2387.6 1391.2L2393.7 1391.5L2385 1411.5C2355.8 1479.1 2321.1 1536.7 2291.5 1566.6C2280.7 1577.5 2274.9 1581.3 2268.3 1581.4C2260.5 1581.6 2256.4 1576.6 2254.9 1565.1C2249.1 1520 2267.2 1460.1 2316 1363C2320.7 1353.5 2321.2 1352.1 2320.7 1347.8C2319.8 1340.9 2317 1337.6 2308.7 1333.6C2299.5 1329.3 2293.3 1328 2281.2 1328C2271 1328 2263.6 1329.5 2256.7 1332.9C2254.5 1334 2252.5 1334.8 2252.3 1334.7C2252.2 1334.5 2250.9 1327.6 2249.5 1319.4C2245.3 1294.8 2242.1 1286.4 2234.2 1280.4C2225.5 1273.8 2220.4 1272.5 2202.5 1272.5C2187.4 1272.5 2186.1 1272.7 2178.5 1275.4C2128.8 1293.1 2085.8 1345.4 2061.9 1417C2051.5 1448.1 2041.8 1490.8 2039.1 1516.8C2038.3 1523.8 2037.5 1527.2 2035.5 1530.5C2032.5 1535.6 2021.3 1547.4 2012 1555C1997.5 1566.9 1968 1584.6 1959.4 1586.4C1956.5 1587 1955.6 1586.5 1950.1 1581.5C1935.5 1567.9 1928.5 1552.7 1926 1529C1924.9 1518.2 1924.7 1500.5 1925.6 1493.8L1926.2 1489.3L1933.9 1487.5C1944.3 1485.1 1960.5 1479.7 1971.3 1475C2013.6 1456.7 2049.2 1414.3 2060.9 1368.2C2065.2 1351.3 2066.5 1321.5 2063.5 1308.5C2060.2 1294 2047.4 1276.7 2035.3 1270.3C2023.2 1263.8 1999.6 1263.6 1982.1 1269.8C1947.9 1282 1911.1 1321.1 1884.4 1373.8C1868.4 1405.3 1858.4 1437.2 1853.8 1470.9L1852.5 1480.3L1845.4 1479.7C1836.2 1478.9 1832.6 1477.5 1833.3 1475.2C1833.7 1474.3 1836.6 1465.6 1839.9 1456C1869.6 1369.2 1873 1254.9 1848.9 1158.5C1838.6 1117.7 1823 1082.4 1810.1 1070.9C1799.7 1061.6 1789 1058 1770 1057.3C1746.6 1056.4 1728.6 1063.2 1724.7 1074.2C1724.4 1075.2 1726.2 1080.1 1729.2 1086.2C1754.2 1137.3 1771.3 1198.3 1778.2 1261.5C1780 1277.8 1780 1343.3 1778.2 1359.5C1771.7 1418.1 1755.8 1468.4 1730.6 1510.4C1721.2 1526 1705.6 1545.6 1694.1 1556.2C1682.4 1567.1 1666.8 1576.8 1654.2 1581C1648.1 1583 1647.6 1583 1642.2 1581.4C1605.2 1570.8 1582.4 1539.6 1584.4 1502.5C1585.4 1484.3 1591.3 1461.8 1604.1 1427C1608 1416.4 1608.4 1414.7 1608.4 1405.5C1608.5 1393.5 1607.3 1390.9 1600.2 1387.7C1593.8 1384.8 1578.2 1384.2 1568.8 1386.4C1561.6 1388.1 1550.4 1393.2 1543.1 1398.3C1539.5 1400.7 1538 1402.9 1534.5 1410.5C1521.6 1438.2 1512 1476.7 1512 1500.6C1512 1520.2 1518 1547.3 1524.3 1556.4L1526.4 1559.3L1522.9 1562.2C1501.6 1580.1 1471.9 1592.5 1454.6 1590.7C1437.8 1589 1428 1577.7 1420 1551C1415.5 1535.6 1413.9 1525.5 1413.3 1507C1410.2 1414.4 1461.3 1264.8 1542.3 1129.5C1567 1088.3 1602.9 1037.8 1629.8 1006.5C1632.7 1003.2 1635 999.9 1635 999.1C1635 996.5 1627.5 990.3 1621.5 988C1616.7 986.1 1612.9 985.6 1602.5 985.2C1582.6 984.5 1575.1 987.1 1557.5 1000.3C1547.9 1007.6 1525.1 1030.1 1515.3 1042C1461.9 1107 1418.3 1185.6 1386.6 1274.2C1380.3 1291.9 1370 1324 1368.5 1330.9C1368.1 1333 1366.7 1334.8 1364.7 1336.1C1359.6 1339.2 1346.7 1343.9 1335.4 1346.7C1325.2 1349.2 1324.9 1349.3 1323.4 1347.4C1319.3 1342.2 1316 1328.8 1316 1317C1316 1294.5 1321.8 1280.3 1341.4 1254.7C1351.3 1241.7 1352.3 1238.6 1348.4 1233.3C1344.8 1228.4 1341.7 1227.5 1328.5 1227.5C1318.8 1227.5 1315.1 1228 1309 1229.9C1293.6 1234.7 1281.9 1242.1 1269.5 1255.1C1252.7 1272.6 1244.6 1290.4 1243.3 1312.2C1242 1333.2 1248.8 1347.9 1265.4 1360.3C1275.1 1367.5 1284.6 1372.2 1295.5 1375.1C1302.4 1377 1306.2 1377.3 1323.5 1377.4C1338.2 1377.4 1345.3 1377 1350.3 1375.9C1356.1 1374.5 1357 1374.5 1357 1375.8C1357 1376.6 1355.7 1384.3 1354 1392.9C1343.2 1449.6 1341.1 1503.6 1348.5 1533.1C1355.8 1562.3 1369.5 1583.3 1392 1599.9C1411.2 1614.2 1426.1 1619.1 1449.8 1619.1C1485.4 1619 1511.9 1608.6 1533 1586.4C1537.3 1581.8 1541.1 1578 1541.5 1578C1541.8 1578 1545 1580.5 1548.7 1583.6C1562.1 1595 1579.8 1604.7 1598.9 1611C1618.2 1617.4 1624.3 1618.4 1643.5 1618.3C1695.9 1617.9 1738.7 1601.4 1773.1 1568.3C1793.7 1548.4 1807.2 1529.5 1821.3 1500.8C1827.5 1488.1 1829.9 1484.2 1831 1484.7C1831.8 1485 1836.6 1486.7 1841.6 1488.4L1850.7 1491.5L1851.2 1517C1851.7 1538.6 1852.1 1543.8 1853.9 1551C1858.4 1568.8 1870.4 1587.5 1885.9 1600.7C1899.5 1612.3 1910.8 1617.8 1929 1621.7C1940.4 1624.1 1964.8 1624.1 1977.8 1621.6C2000.3 1617.5 2021.8 1607.6 2043.6 1591.5C2045.6 1590 2045.8 1590.3 2050.3 1599.3C2056.4 1611.7 2065.9 1621.7 2074.5 1624.9C2082.7 1628 2088.8 1629 2099.2 1629C2119.8 1629 2137.7 1621.8 2162.7 1603.4C2174.4 1594.8 2182.9 1587 2188.9 1579.2L2194.4 1572.2L2197.2 1576.1C2203.4 1584.7 2219.3 1594.4 2232 1597.5C2241.6 1599.8 2259.4 1600.5 2268.6 1599C2302.7 1593.5 2338.6 1568.5 2367.7 1529.8C2374.8 1520.4 2390.4 1496 2399.9 1479.5C2406 1469 2427.9 1425.4 2433.5 1412.7C2435.7 1407.9 2437.8 1404 2438.2 1404C2439.2 1404 2441.6 1412.6 2443 1421C2445.1 1433.6 2445.4 1465.3 2443.6 1479.5C2438.9 1514.6 2430.7 1539.1 2414.6 1566C2398.8 1592.5 2382.2 1611.2 2368.3 1618.3C2361.2 1622 2353.5 1620.1 2344.7 1612.3C2342.7 1610.5 2340.2 1609 2339.2 1609C2337.9 1609 2337.8 1609.2 2338.8 1609.9C2339.9 1610.6 2339.9 1610.8 2338.6 1611.3C2337.7 1611.7 2337 1611.5 2337 1611C2337 1610.5 2336.3 1610.3 2335.5 1610.6C2333.2 1611.5 2336 1616 2343.8 1623.9C2353.1 1633.2 2357.3 1634.5 2377.5 1634.4C2391.7 1634.2 2393 1634.1 2401.5 1631C2406.5 1629.2 2412.8 1626.6 2415.5 1625.3C2432.3 1616.9 2450.8 1600.5 2463.3 1583C2469.6 1574.1 2486 1543.2 2486 1540.2C2486 1539.4 2488.5 1541.1 2491.7 1544C2506.6 1557.6 2523.2 1565.2 2541.8 1567C2549.2 1567.7 2551.7 1568.3 2552.7 1569.7C2566.5 1588.7 2584.2 1601.8 2610.7 1612.4C2624 1617.7 2646.9 1623 2656.7 1623C2683.4 1622.9 2714.3 1607 2759.1 1570.2L2761.8 1568L2762.4 1574.7C2764.1 1593.4 2767.8 1609.7 2772.3 1617.5C2777.1 1625.9 2791.8 1633.1 2813.2 1637.4C2830.3 1640.9 2840.3 1641.9 2864 1642.6C2887.2 1643.3 2902.9 1642 2930.5 1636.9C2950.5 1633.2 2964.4 1629.5 2983.5 1622.9C3056.3 1597.8 3115.7 1559.2 3152.7 1512.9C3188.5 1468.1 3207.8 1422.1 3209.7 1377.5C3211.1 1343.5 3203.7 1316.3 3187 1294.2C3171.9 1274.1 3156.7 1265.5 3128.8 1261.4C3113.9 1259.2 3087.9 1260 3073.8 1263C3047.4 1268.6 3021.9 1281.4 2995.7 1302.2C2985.4 1310.4 2980.7 1315.9 2979 1321.7C2977.9 1325.3 2978 1326.3 2979.6 1329.7C2982.8 1336.2 2986.9 1337.5 3003.5 1337.4C3015.8 1337.4 3018.6 1337.1 3026.5 1334.7C3031.5 1333.2 3037.3 1330.6 3039.5 1328.9C3061.1 1312.9 3080.7 1302.1 3096.4 1297.6C3108.2 1294.2 3111.6 1294.2 3116.8 1298.1C3121.8 1301.7 3131.9 1314.9 3136 1323.1C3160.7 1371.9 3142.7 1455.6 3094.6 1515.5C3084.3 1528.2 3068.2 1544.8 3057 1554.2C3011.5 1592.3 2944.9 1617 2883 1618.7C2852.8 1619.6 2842 1616.5 2832.9 1604.3C2825.2 1594.1 2823.1 1587.8 2822 1571.5C2821 1557 2822.1 1530.7 2824.4 1516.9C2825.8 1508.3 2825.9 1508.2 2835 1495.9C2889.4 1423.1 2938.1 1323 2969.1 1220.5C2985.5 1166.2 3001.4 1091.4 3007.9 1037C3010.3 1017 3013 974.5 3013 955.7C3013 941.1 3012.1 937.2 3008.1 933.5C3004.9 930.7 2994.4 930.4 2986.5 933ZM2945.5 1105.6C2944.1 1113.8 2940.6 1129.9 2937.9 1141.5C2935.2 1153 2930.4 1173.1 2927.4 1186C2921.2 1212.1 2903.3 1267.9 2892.5 1294.8C2880.2 1325.5 2871.1 1347.6 2867.5 1356C2860.7 1371.6 2843.7 1405.5 2843.3 1404.4C2843.1 1403.8 2845.6 1392.7 2848.9 1379.9C2852.2 1367 2856.7 1348.2 2859 1338C2875 1265.7 2894.5 1207.6 2925.7 1138.5C2931.2 1126.4 2938.3 1110.5 2941.5 1103.2C2944.7 1095.9 2947.5 1090.1 2947.7 1090.4C2947.9 1090.6 2946.9 1097.5 2945.5 1105.6ZM2009.7 1322.7C2008.9 1354.2 2006 1372.2 1998.1 1395C1993.9 1407.3 1991.5 1412.5 1986.4 1420.1C1981.5 1427.5 1970.1 1438.7 1960.4 1445.6C1954 1450.2 1933.6 1460.4 1932.1 1459.8C1930.1 1459 1945.3 1414.5 1955.5 1391.5C1966 1367.7 1982.6 1337.1 1993.9 1320.7C1998.4 1314.1 2008.9 1301 2009.7 1301C2010 1301 2010 1310.8 2009.7 1322.7ZM2178.9 1363.3C2181 1416.8 2183.9 1423.4 2208.7 1429.6C2209.6 1429.8 2209.6 1430.9 2208.4 1434.2C2207.6 1436.6 2205.1 1445.7 2202.9 1454.5C2200.7 1463.3 2197.1 1476.5 2194.9 1483.7C2189.9 1500.1 2187.3 1513.4 2186.4 1526.8L2185.7 1537.1L2177.6 1544.7C2166.5 1555.2 2150.1 1568.7 2134 1580.6C2119.5 1591.3 2101.2 1603.5 2100.6 1602.9C2100.4 1602.7 2099.3 1598.7 2098.1 1594C2093.6 1575.9 2093.3 1565.5 2096.6 1535.1C2099 1512.3 2102.3 1498.7 2113.6 1465C2131.2 1412.7 2145.9 1380.9 2167.7 1348.2C2172.9 1340.3 2177.4 1334 2177.5 1334.2C2177.7 1334.4 2178.3 1347.5 2178.9 1363.3ZM2667.4 1376.5C2658.3 1402.7 2644.5 1433 2634.2 1449.2C2627.3 1460.2 2615.3 1476.5 2612 1479.5L2609.7 1481.5L2610.5 1479C2613.9 1467.1 2630 1431.7 2640 1413.8C2649.5 1397.1 2669.8 1365.5 2670.7 1366.3C2670.8 1366.4 2669.3 1371 2667.4 1376.5Z" fill="#000000" fill-rule="nonzero" opacity="1" stroke="none"/>
<path d="M563.7 946.5C557.6 948.8 553 952.7 538.3 968.1C518 989.3 510 999.6 487.5 1033.5C476.9 1049.5 441.1 1110.1 425.8 1138C407.2 1171.7 385.7 1218.1 381.7 1232.7C380.7 1236.4 380.8 1237.5 382.2 1239.8C387.1 1247.9 402.3 1249.9 426 1245.5C439.9 1243 441.4 1242.9 461.2 1243.5L481.9 1244.2L480 1248.9C479 1251.4 475.6 1259.1 472.5 1266C469.4 1272.9 463.7 1285.5 459.8 1294C440.9 1335.9 421 1374.3 401.7 1406.5C382.5 1438.6 353.6 1479.5 331.1 1506.5C309.5 1532.3 278.8 1563.5 260.5 1578.2C244.1 1591.2 216.9 1605.9 200.4 1610.5C192.5 1612.7 171.6 1613.6 165.3 1612.1C151 1608.5 137.1 1598 131.3 1586.5C118.9 1562 115.7 1521.8 122.6 1480C130.4 1433.6 163.3 1369.5 199.9 1329.6C204.4 1324.7 209.2 1319.9 210.5 1318.8C213.4 1316.5 213.8 1312.2 211.5 1308.6C210.6 1307.3 207.1 1305 203.7 1303.4C197.8 1300.7 196.7 1300.5 184 1300.5C170.6 1300.5 170.4 1300.5 163.5 1303.9C157.9 1306.7 154 1309.9 143.4 1320.4C128.8 1335 122.5 1342.6 112.1 1358.4C80.5 1406.4 64.8 1465.1 70.1 1516.1C75.6 1570.6 99.3 1610.6 133.9 1623.9C150.2 1630.2 167.1 1632.1 195 1631C219.9 1629.9 229.7 1627.2 251.9 1615.4C278.1 1601.5 319.8 1565.5 354.4 1527C379.9 1498.7 417.2 1450.8 437.7 1420.3C466.9 1376.8 504.2 1308.5 521.4 1267.1L527.8 1251.7L528.5 1256.1C529.8 1263.6 529.2 1304.6 527.5 1325C523.4 1375.3 516.7 1411.7 502.4 1460.5C493 1492.8 483.5 1516.6 466 1552.5C456 1573.2 449.4 1583.4 441.6 1590.8C436.4 1595.7 435.8 1596 430.8 1596C423.6 1596 414 1591.1 398.8 1579.7C388.6 1572 386.7 1571 383.5 1571.2C377.7 1571.6 377.6 1572.8 382.4 1582.7C394.3 1607.1 403 1615.3 423.7 1621.2C430.3 1623.1 433.8 1623.5 446.5 1623.4C459.4 1623.3 462.9 1623 471.4 1620.7C503 1612.2 522.1 1593 546.4 1545C555 1528.1 564.5 1506.5 569.5 1492.7C571 1488.5 572.7 1485 573.2 1485C573.6 1485 576.8 1486.1 580.1 1487.5C583.5 1488.8 587.7 1490.2 589.5 1490.6L592.8 1491.2L593.3 1516.8C593.7 1538.7 594.1 1543.8 595.9 1551C603.1 1579.4 628.8 1608.1 655.5 1617.4C668.6 1622 678.3 1623.4 695 1623.4C725.6 1623.3 750.4 1615.5 776.9 1597.6L787.8 1590.3L792.3 1599.4C800.8 1616.4 811.8 1625.3 827.6 1628.1C836.8 1629.7 854.6 1628.7 864 1626C883 1620.7 906.5 1605.8 927.8 1585.5L938 1575.8L943.6 1580.9C967.5 1602.8 1000.9 1605.6 1034.7 1588.6C1043 1584.5 1050.6 1579.8 1082 1559.6C1104.1 1545.4 1135.5 1530.2 1153.7 1524.9C1164.4 1521.9 1179 1519.8 1184.7 1520.5C1200 1522.4 1214.4 1536.9 1218.1 1554C1219.7 1561.3 1218.8 1572.4 1216 1579.4C1214.8 1582.6 1210.6 1589.9 1206.6 1595.7C1195 1612.8 1194 1614.5 1193.3 1618.3C1192.8 1621.4 1193.2 1622.3 1195.7 1624.9C1199.7 1628.9 1205.7 1630.5 1217 1630.4C1228.7 1630.4 1236.1 1628.2 1248.1 1620.8C1278.4 1602.2 1286.9 1573.3 1271.4 1541.2C1262.3 1522.4 1242.5 1507.1 1219.3 1501C1200.1 1496 1176.3 1495.7 1160.6 1500.4C1144.3 1505.3 1105.8 1525.6 1071.1 1547.8C1046.2 1563.6 1016 1578.2 1006.1 1579.2L1002.7 1579.5L999.6 1571C996.6 1562.7 996.5 1562.1 996.6 1545C996.6 1514.5 1003.3 1485.1 1019.7 1443.7C1026.3 1426.9 1045.3 1386 1056 1365.5C1064.6 1349.1 1064.9 1347.4 1060.4 1341.3C1057.4 1337.4 1044.3 1330.6 1036.3 1329C1024.1 1326.4 1008.4 1329.2 998.8 1335.5C996.6 1337 994.7 1338 994.6 1337.8C994.4 1337.6 993.8 1333.7 993.1 1329C987.5 1291.2 982.7 1281.4 966.2 1274.8C961.2 1272.8 958.7 1272.6 945 1272.5C932.4 1272.5 928.5 1272.9 924 1274.4C893.3 1284.8 862.3 1307.7 842.2 1334.8C825.7 1357 815.8 1378.4 803.5 1418.1C792.4 1454 784.8 1486.4 781.9 1510C781.3 1515.2 780.1 1521 779.3 1522.9C777.3 1527.4 756.9 1548.3 745.5 1557.4C729.6 1570.3 713 1581.1 703.3 1584.9L698.1 1586.9L692 1581.4C673.9 1564.5 666.8 1543.7 667.1 1507.5C667.3 1492.4 667.8 1489.9 671 1488.9C672.4 1488.5 678.6 1486.7 684.8 1485C699 1481.1 717.2 1473.8 727.1 1468.2C763.3 1447.4 792.5 1408.3 802.9 1366.2C808.6 1343.1 809.1 1318.2 804.2 1303.5C799.8 1290.7 786.1 1274.2 775.9 1269.6C759.2 1262 729.7 1264.8 711.7 1275.7C698.5 1283.7 677.6 1303.8 662.1 1323.4C638.6 1353.2 611.5 1406.8 601.6 1443C598.6 1453.9 595 1472.9 595 1477.5L595 1480.6L588.3 1479.8C578.1 1478.6 576 1478 576 1476.3C576 1475.4 577.8 1469.2 579.9 1462.6C589.7 1432.5 601.1 1381.7 604.5 1353.5C608 1323.4 609.1 1275.8 606.6 1257C604.7 1243.3 600.9 1231.2 597.3 1227.8C588.9 1219.8 568.1 1216.2 549.5 1219.5C545.2 1220.3 541.4 1220.7 541.2 1220.5C540.9 1220.3 542.8 1214.6 545.3 1207.8C549.3 1197.2 553.8 1183.5 564.5 1150C589.8 1070.8 600.3 1022.3 600.4 983C600.5 964.5 599.3 954.5 596.6 950.8C595.9 949.8 593.3 948.1 590.9 947C585.5 944.6 569.8 944.3 563.7 946.5ZM540.5 1065.7C539.7 1067.8 537.4 1076.5 535.5 1085C533.5 1093.5 528.6 1111.5 524.5 1125C520.5 1138.5 515.5 1155.1 513.5 1162C510.3 1173 492.8 1219.3 491.1 1221.2C490.8 1221.6 486.2 1221.3 481 1220.5C475.8 1219.7 465.3 1219 457.8 1219C450.2 1219 444 1218.7 444 1218.2C444 1217.8 444.7 1216.5 445.5 1215.4C446.3 1214.2 451.6 1204.5 457.3 1193.9C475.9 1159.2 505 1111.8 520.7 1090.9C526.2 1083.5 533.1 1074 536 1069.7C539 1065.5 541.5 1062 541.7 1062C541.9 1062 541.3 1063.7 540.5 1065.7ZM751.1 1340.3C749.6 1358.1 747.3 1372.6 744.5 1382.5C741.1 1394.2 735.5 1408.1 731.2 1415.4C726.9 1422.7 713.1 1436.8 704 1443.3C697.5 1447.8 674.2 1460.6 673.6 1459.9C673 1459.2 680.9 1434.2 686.4 1419.1C696.4 1391.8 709.4 1364.4 724.3 1339.4C734.2 1322.8 737 1318.7 745.3 1308.3L751.5 1300.5L751.8 1314C752 1321.4 751.6 1333.3 751.1 1340.3ZM921 1368C922.2 1402.3 923.6 1415.9 926.8 1421.3C929.2 1425.4 935.3 1428.2 943 1428.7C952.5 1429.4 952.2 1429.1 950 1435.5C948.9 1438.6 946.5 1447.7 944.5 1455.8C942.5 1463.9 939.1 1476.5 936.9 1483.7C931.9 1500.1 929.3 1513.4 928.4 1526.8L927.7 1537.1L919.6 1544.7C908.3 1555.4 891.9 1568.9 876 1580.6C861.4 1591.4 843.2 1603.5 842.6 1602.9C841.7 1601.9 837.9 1584.8 837 1577.5C835.2 1564.3 837.8 1532.6 842.6 1509C845.8 1492.8 863.6 1439.6 873.5 1416.5C885.9 1387.5 895.2 1370 909.7 1348.2C914.9 1340.3 919.4 1334.1 919.6 1334.2C919.8 1334.4 920.4 1349.6 921 1368Z" fill="#000000" fill-rule="nonzero" opacity="1" stroke="none"/>
</g>
</g>
</svg>
